<svg width="204" height="210" viewBox="0 0 204 210" fill="none" xmlns="http://www.w3.org/2000/svg">
<path d="M80.8453 44.26V73.66H97.6453V82.06H72.4453V44.26H80.8453ZM106.045 73.66H97.6453V44.26H106.045V73.66Z" fill="white"/>
<path d="M105.518 73.2H130.718V111H105.518V119.4H97.1184V81.6H105.518V102.6H122.318V81.6H105.518V73.2Z" fill="white"/>
<path d="M18.1875 144.84H24.2675L24.3075 169.08H18.2275L18.1875 144.84ZM7.3075 144.84L7.2275 169.08H1.1875V144.84H7.3075ZM18.1875 174H7.2275V169.08H18.1875V174ZM47.2303 168.96V174H35.4703V168.96H47.2303ZM35.4703 144.64V174H29.7903L29.8303 144.64H35.4703ZM52.8556 144.68H69.4156V149.92H52.8556V144.68ZM63.9356 149.92L64.0156 174H58.3356L58.2556 149.92H63.9356ZM91.6959 168.96V174H75.1359V168.96H91.6959ZM75.1759 144.68H91.7359V149.92H75.1759V144.68ZM86.2559 149.92L86.2159 168.96H80.5759V149.92H86.2559ZM115.496 151.04V157.16H122.056V151.04H115.496ZM103.016 151.04V157.16H109.376V151.04H103.016ZM122.056 173.96V145.12H128.296L128.256 173.96H122.056ZM109.376 163.12V157.16H115.496V163.12H109.376ZM103.016 173.96H96.7763V144.88H103.016V173.96ZM150.689 160.96H138.929V156.08H150.689V160.96ZM150.689 150.2H155.929L155.969 174H150.729L150.689 150.2ZM138.929 150.2V174H133.249V150.2H138.929ZM138.929 144.72H150.689V150.2H138.929V144.72ZM161.707 144.68H178.267V149.92H161.707V144.68ZM172.787 149.92L172.867 174H167.187L167.107 149.92H172.787ZM203.348 174H189.668V169.08H203.348V174ZM189.668 144.72V174H183.708V144.72H189.668ZM203.268 161.72H189.668V156.84H203.268V161.72ZM189.628 144.72H203.148V150.2H189.628V144.72ZM60.097 184.2H65.257L65.377 190.8H60.097V184.2ZM49.337 178.72V208H43.377V178.72H49.337ZM60.057 195.72H49.337V190.84H60.057V195.72ZM49.297 178.72H60.057V184.2H49.297V178.72ZM87.4108 202.96V208H70.8508V202.96H87.4108ZM70.8908 178.68H87.4508V183.92H70.8908V178.68ZM81.9708 183.92L81.9308 202.96H76.2908V183.92H81.9708ZM106.811 197.24H112.891V208H106.811V197.24ZM99.2511 197.24L99.2111 208H93.1711L93.1311 197.24H99.2511ZM106.731 178.88H112.811L112.891 189.64H106.811L106.731 178.88ZM99.3711 178.88L99.3311 189.64H93.2911L93.2511 178.88H99.3711ZM106.771 197.2H99.2911L99.3311 189.64H106.771V197.2ZM138.133 208H124.453V203.08H138.133V208ZM124.453 178.72V208H118.493V178.72H124.453ZM138.053 195.72H124.453V190.84H138.053V195.72ZM124.413 178.72H137.933V184.2H124.413V178.72ZM160.758 202.96V208H148.998V202.96H160.758ZM148.998 178.64V208H143.318L143.358 178.64H148.998Z" fill="white"/>
</svg>
